<?xml version="1.0" encoding="UTF-8"?>
<!DOCTYPE svg PUBLIC "-//W3C//DTD SVG 1.1//EN" "http://www.w3.org/Graphics/SVG/1.1/DTD/svg11.dtd">
<svg xmlns="http://www.w3.org/2000/svg" version="1.1" width="256px" height="256px" style="shape-rendering:geometricPrecision; text-rendering:geometricPrecision; image-rendering:optimizeQuality; fill-rule:evenodd; clip-rule:evenodd" xmlns:xlink="http://www.w3.org/1999/xlink">
<g><path style="opacity:0.894" fill="#020200" d="M 122.5,63.5 C 135.766,62.0452 140.599,67.7119 137,80.5C 135.429,82.9229 133.263,84.2562 130.5,84.5C 130.5,88.8333 130.5,93.1667 130.5,97.5C 144.171,97.3334 157.837,97.5001 171.5,98C 175.667,99.5 178.5,102.333 180,106.5C 181.309,111.066 181.809,115.733 181.5,120.5C 184.747,120.415 187.581,121.415 190,123.5C 191.101,127.552 191.601,131.719 191.5,136C 191.601,140.281 191.101,144.448 190,148.5C 187.695,150.93 184.862,151.93 181.5,151.5C 182.816,159.422 180.816,166.255 175.5,172C 174.167,172.667 172.833,173.333 171.5,174C 153.5,174.333 135.5,174.667 117.5,175C 110.167,180 102.833,185 95.5,190C 93.3225,191.202 90.9892,191.702 88.5,191.5C 88.5,185.833 88.5,180.167 88.5,174.5C 82.396,174.532 77.896,171.865 75,166.5C 73.7497,161.58 73.2497,156.58 73.5,151.5C 70.1379,151.93 67.3046,150.93 65,148.5C 63.8993,144.448 63.3993,140.281 63.5,136C 63.3993,131.719 63.8993,127.552 65,123.5C 67.4194,121.415 70.2528,120.415 73.5,120.5C 72.7906,114.108 73.9573,108.108 77,102.5C 78.7309,100.383 80.8976,98.8834 83.5,98C 97.1626,97.5001 110.829,97.3334 124.5,97.5C 124.5,93.1667 124.5,88.8333 124.5,84.5C 119.297,83.2882 116.63,79.9549 116.5,74.5C 116.706,69.7474 118.706,66.0807 122.5,63.5 Z"/></g>
<g><path style="opacity:1" fill="#0295dc" d="M 125.5,67.5 C 132.369,67.5377 134.869,70.871 133,77.5C 129.333,81.5 125.667,81.5 122,77.5C 120.581,73.0823 121.748,69.7489 125.5,67.5 Z"/></g>
<g><path style="opacity:1" fill="#fadb00" d="M 168.5,102.5 C 169.412,104.595 170.579,106.595 172,108.5C 172.667,126.833 172.667,145.167 172,163.5C 170.606,165.388 169.44,167.388 168.5,169.5C 151.005,170.332 133.338,170.832 115.5,171C 108.5,175.5 101.5,180 94.5,184.5C 93.6735,180.541 93.1735,176.541 93,172.5C 89.5703,171 86.0703,169.5 82.5,168C 80.5125,166.681 79.3459,164.848 79,162.5C 78.3333,144.5 78.3333,126.5 79,108.5C 80.5629,105.272 83.0629,103.105 86.5,102C 114.003,101.17 141.336,101.336 168.5,102.5 Z"/></g>
<g><path style="opacity:1" fill="#fabe07" d="M 168.5,102.5 C 172.02,103.183 174.52,105.183 176,108.5C 176.667,126.5 176.667,144.5 176,162.5C 174.943,166.391 172.443,168.724 168.5,169.5C 169.44,167.388 170.606,165.388 172,163.5C 172.667,145.167 172.667,126.833 172,108.5C 170.579,106.595 169.412,104.595 168.5,102.5 Z"/></g>
<g><path style="opacity:1" fill="#0f0f07" d="M 97.5,119.5 C 109.779,118.421 114.279,123.754 111,135.5C 103.774,142.682 97.4406,142.016 92,133.5C 90.268,127.314 92.1014,122.647 97.5,119.5 Z"/></g>
<g><path style="opacity:1" fill="#0e0d04" d="M 148.5,119.5 C 160.886,118.377 165.386,123.71 162,135.5C 155.922,142.077 149.922,142.077 144,135.5C 140.975,128.742 142.475,123.409 148.5,119.5 Z"/></g>
<g><path style="opacity:1" fill="#00b4cb" d="M 98.5,123.5 C 107.968,123.285 110.301,127.118 105.5,135C 95.4151,135.76 93.0818,131.927 98.5,123.5 Z"/></g>
<g><path style="opacity:1" fill="#00b1c8" d="M 149.5,123.5 C 156.827,122.329 159.994,125.329 159,132.5C 153.307,138.217 149.141,137.217 146.5,129.5C 146.984,127.199 147.984,125.199 149.5,123.5 Z"/></g>
<g><path style="opacity:1" fill="#738187" d="M 69.5,125.5 C 71.1667,125.5 72.8333,125.5 74.5,125.5C 74.5,132.5 74.5,139.5 74.5,146.5C 71.9556,146.896 69.7889,146.229 68,144.5C 67.3333,138.833 67.3333,133.167 68,127.5C 68.7172,126.956 69.2172,126.289 69.5,125.5 Z"/></g>
<g><path style="opacity:1" fill="#555e62" d="M 180.5,125.5 C 183.044,125.104 185.211,125.771 187,127.5C 187.667,133.167 187.667,138.833 187,144.5C 185.211,146.229 183.044,146.896 180.5,146.5C 180.5,139.5 180.5,132.5 180.5,125.5 Z"/></g>
<g><path style="opacity:1" fill="#151102" d="M 115.5,144.5 C 117.841,144.992 119.841,146.159 121.5,148C 127.631,149.451 133.131,148.284 138,144.5C 139.28,144.613 140.113,145.28 140.5,146.5C 138.886,149.284 136.552,151.118 133.5,152C 129.167,152.667 124.833,152.667 120.5,152C 116.74,150.486 115.073,147.986 115.5,144.5 Z"/></g>
</svg>
