<?xml version="1.0" encoding="UTF-8"?>
<!DOCTYPE svg PUBLIC "-//W3C//DTD SVG 1.1//EN" "http://www.w3.org/Graphics/SVG/1.1/DTD/svg11.dtd">
<svg xmlns="http://www.w3.org/2000/svg" version="1.1" width="256px" height="256px" style="shape-rendering:geometricPrecision; text-rendering:geometricPrecision; image-rendering:optimizeQuality; fill-rule:evenodd; clip-rule:evenodd" xmlns:xlink="http://www.w3.org/1999/xlink">
<g><path style="opacity:0.967" fill="#3b97d3" d="M 121.5,-0.5 C 125.5,-0.5 129.5,-0.5 133.5,-0.5C 145.691,6.25045 148.524,15.9171 142,28.5C 139.536,31.6467 136.37,33.6467 132.5,34.5C 129.167,34.5 125.833,34.5 122.5,34.5C 114.084,32.0193 109.751,26.3527 109.5,17.5C 109.556,8.68488 113.556,2.68488 121.5,-0.5 Z"/></g>
<g><path style="opacity:0.881" fill="#a3a4a4" d="M 122.5,34.5 C 125.833,34.5 129.167,34.5 132.5,34.5C 132.5,46.1667 132.5,57.8333 132.5,69.5C 129.167,70.8333 125.833,70.8333 122.5,69.5C 122.5,57.8333 122.5,46.1667 122.5,34.5 Z"/></g>
<g><path style="opacity:0.993" fill="#3b96d2" d="M 122.5,69.5 C 125.833,70.8333 129.167,70.8333 132.5,69.5C 158.835,69.3334 185.169,69.5 211.5,70C 222.457,72.2892 229.624,78.7892 233,89.5C 233.5,99.1609 233.666,108.828 233.5,118.5C 233.5,136.5 233.5,154.5 233.5,172.5C 233.666,181.839 233.5,191.173 233,200.5C 230.383,209.232 224.883,215.398 216.5,219C 179.893,220.315 143.227,220.981 106.5,221C 90.0103,231.485 73.5103,241.985 57,252.5C 53.986,252.153 52.3193,250.486 52,247.5C 51.6667,239.167 51.3333,230.833 51,222.5C 38.574,221.288 29.2407,215.288 23,204.5C 21.5973,193.898 21.0973,183.231 21.5,172.5C 21.5,154.5 21.5,136.5 21.5,118.5C 21.3335,108.828 21.5002,99.1609 22,89.5C 25.3762,78.7892 32.5428,72.2892 43.5,70C 69.8312,69.5 96.1646,69.3334 122.5,69.5 Z"/></g>
<g><path style="opacity:1" fill="#f0d35d" d="M 68.5,114.5 C 87.34,113.823 94.5067,122.489 90,140.5C 82.879,150.201 74.0457,152.035 63.5,146C 53.0979,133.579 54.7646,123.079 68.5,114.5 Z"/></g>
<g><path style="opacity:1" fill="#f0d35d" d="M 174.5,114.5 C 193.365,113.845 200.532,122.512 196,140.5C 188.879,150.201 180.046,152.035 169.5,146C 158.925,133.526 160.591,123.026 174.5,114.5 Z"/></g>
<g><path style="opacity:0.981" fill="#285680" d="M 21.5,118.5 C 21.5,136.5 21.5,154.5 21.5,172.5C 15.1351,173.099 9.13507,171.932 3.5,169C 2.02294,167.188 0.689603,165.355 -0.5,163.5C -0.5,151.167 -0.5,138.833 -0.5,126.5C 4.80402,118.97 12.1374,116.304 21.5,118.5 Z"/></g>
<g><path style="opacity:0.98" fill="#285580" d="M 233.5,118.5 C 242.863,116.304 250.196,118.97 255.5,126.5C 255.5,138.833 255.5,151.167 255.5,163.5C 254.017,167.147 251.35,169.647 247.5,171C 242.915,172.225 238.248,172.725 233.5,172.5C 233.5,154.5 233.5,136.5 233.5,118.5 Z"/></g>
<g><path style="opacity:1" fill="#354b61" d="M 102.5,163.5 C 104.527,163.338 106.527,163.505 108.5,164C 113.082,169.373 118.915,171.873 126,171.5C 134.059,172.1 140.892,169.6 146.5,164C 148.5,163.333 150.5,163.333 152.5,164C 154.013,167.429 153.347,170.429 150.5,173C 135.119,182.961 119.786,182.961 104.5,173C 101.586,170.261 100.919,167.094 102.5,163.5 Z"/></g>
</svg>
