<?xml version="1.0" encoding="UTF-8"?>
<!DOCTYPE svg PUBLIC "-//W3C//DTD SVG 1.1//EN" "http://www.w3.org/Graphics/SVG/1.1/DTD/svg11.dtd">
<svg xmlns="http://www.w3.org/2000/svg" version="1.1" width="256px" height="256px" style="shape-rendering:geometricPrecision; text-rendering:geometricPrecision; image-rendering:optimizeQuality; fill-rule:evenodd; clip-rule:evenodd" xmlns:xlink="http://www.w3.org/1999/xlink">
<g><path style="opacity:0.961" fill="#468efe" d="M 120.5,-0.5 C 125.167,-0.5 129.833,-0.5 134.5,-0.5C 149.375,7.63242 152.875,19.2991 145,34.5C 141.523,37.9816 137.523,40.6482 133,42.5C 132.5,50.8267 132.334,59.16 132.5,67.5C 158.835,67.3334 185.169,67.5 211.5,68C 223.441,71.6076 230.941,79.4409 234,91.5C 234.5,99.1594 234.666,106.826 234.5,114.5C 244.239,113.2 251.239,116.867 255.5,125.5C 255.5,138.167 255.5,150.833 255.5,163.5C 251.215,172.144 244.215,175.811 234.5,174.5C 234.666,182.507 234.5,190.507 234,198.5C 230.5,210 223,217.5 211.5,221C 177.167,221.333 142.833,221.667 108.5,222C 91.3839,232.638 74.7173,243.804 58.5,255.5C 56.1667,255.5 53.8333,255.5 51.5,255.5C 50.5227,244.248 50.1894,232.914 50.5,221.5C 35.2904,220.796 25.4571,213.13 21,198.5C 20.5003,190.507 20.3336,182.507 20.5,174.5C 10.7852,175.811 3.78518,172.144 -0.5,163.5C -0.5,150.833 -0.5,138.167 -0.5,125.5C 3.78518,116.856 10.7852,113.189 20.5,114.5C 20.3336,106.826 20.5003,99.1594 21,91.5C 25.3023,75.3643 35.8023,67.3643 52.5,67.5C 54.3332,69.4957 54.8332,71.829 54,74.5C 50.9491,76.019 47.7824,77.019 44.5,77.5C 37.5757,79.923 32.7424,84.5897 30,91.5C 29.5002,100.827 29.3335,110.161 29.5,119.5C 29.5,136.5 29.5,153.5 29.5,170.5C 29.1091,180.233 29.6091,189.9 31,199.5C 33.8359,205.51 38.3359,209.51 44.5,211.5C 50.0618,211.442 54.7285,213.442 58.5,217.5C 58.5,217.833 58.5,218.167 58.5,218.5C 58.1688,226.86 58.5021,235.193 59.5,243.5C 60.1067,243.376 60.44,243.043 60.5,242.5C 63.0472,241.066 65.3805,239.4 67.5,237.5C 80.0146,229.163 92.6813,220.996 105.5,213C 139.165,212.5 172.832,212.333 206.5,212.5C 215.897,210.939 222.063,205.606 225,196.5C 225.667,161.5 225.667,126.5 225,91.5C 221.757,83.4199 215.924,78.4199 207.5,76.5C 166.165,76.6667 124.832,76.5 83.5,76C 80.0015,73.514 79.6681,70.6807 82.5,67.5C 95.8333,67.5 109.167,67.5 122.5,67.5C 122.666,59.16 122.5,50.8267 122,42.5C 106.507,35.5042 102.174,24.1708 109,8.5C 112.161,4.49052 115.994,1.49052 120.5,-0.5 Z"/></g>
<g><path style="opacity:1" fill="#f9fbfe" d="M 127.5,8.5 C 122.186,16.2653 122.186,23.932 127.5,31.5C 127.833,32.1667 128.167,32.8333 128.5,33.5C 116.131,31.7638 112.298,25.0971 117,13.5C 119.55,9.80825 123.05,8.14158 127.5,8.5 Z"/></g>
<g><path style="opacity:1" fill="#c6d7fc" d="M 128.5,8.5 C 135.448,9.44741 139.448,13.4474 140.5,20.5C 139.948,28.0507 135.948,32.384 128.5,33.5C 128.167,32.8333 127.833,32.1667 127.5,31.5C 130.605,28.7729 131.938,25.2729 131.5,21C 131.232,16.6395 130.232,12.4728 128.5,8.5 Z"/></g>
<g><path style="opacity:1" fill="#e7ecfc" d="M 127.5,8.5 C 127.833,8.5 128.167,8.5 128.5,8.5C 130.232,12.4728 131.232,16.6395 131.5,21C 131.938,25.2729 130.605,28.7729 127.5,31.5C 122.186,23.932 122.186,16.2653 127.5,8.5 Z"/></g>
<g><path style="opacity:1" fill="#e7ecfc" d="M 52.5,67.5 C 56.8333,67.5 61.1667,67.5 65.5,67.5C 62.4279,71.5427 63.2612,74.5427 68,76.5C 72.0327,74.1638 72.5327,71.1638 69.5,67.5C 73.8333,67.5 78.1667,67.5 82.5,67.5C 79.6681,70.6807 80.0015,73.514 83.5,76C 124.832,76.5 166.165,76.6667 207.5,76.5C 212.208,81.244 215.375,86.9107 217,93.5C 217.667,127.167 217.667,160.833 217,194.5C 215.773,201.971 212.273,207.971 206.5,212.5C 172.832,212.333 139.165,212.5 105.5,213C 92.6813,220.996 80.0146,229.163 67.5,237.5C 67.6662,231.491 67.4995,225.491 67,219.5C 66.5,218.333 65.6667,217.5 64.5,217C 62.2884,216.211 60.2884,216.378 58.5,217.5C 54.7285,213.442 50.0618,211.442 44.5,211.5C 45.2389,211.631 45.9056,211.464 46.5,211C 42.2366,206.642 39.4033,201.475 38,195.5C 37.5003,187.173 37.3336,178.84 37.5,170.5C 34.8333,170.5 32.1667,170.5 29.5,170.5C 29.5,153.5 29.5,136.5 29.5,119.5C 32.1667,119.5 34.8333,119.5 37.5,119.5C 37.3336,110.827 37.5002,102.16 38,93.5C 39.2822,87.6004 42.1155,82.6004 46.5,78.5C 46.0431,77.7025 45.3764,77.3691 44.5,77.5C 47.7824,77.019 50.9491,76.019 54,74.5C 54.8332,71.829 54.3332,69.4957 52.5,67.5 Z"/></g>
<g><path style="opacity:1" fill="#5193ff" d="M 65.5,67.5 C 66.8333,67.5 68.1667,67.5 69.5,67.5C 72.5327,71.1638 72.0327,74.1638 68,76.5C 63.2612,74.5427 62.4279,71.5427 65.5,67.5 Z"/></g>
<g><path style="opacity:1" fill="#fdfdfe" d="M 44.5,77.5 C 45.3764,77.3691 46.0431,77.7025 46.5,78.5C 42.1155,82.6004 39.2822,87.6004 38,93.5C 37.5002,102.16 37.3336,110.827 37.5,119.5C 34.8333,119.5 32.1667,119.5 29.5,119.5C 29.3335,110.161 29.5002,100.827 30,91.5C 32.7424,84.5897 37.5757,79.923 44.5,77.5 Z"/></g>
<g><path style="opacity:1" fill="#c9d8fc" d="M 207.5,76.5 C 215.924,78.4199 221.757,83.4199 225,91.5C 225.667,126.5 225.667,161.5 225,196.5C 222.063,205.606 215.897,210.939 206.5,212.5C 212.273,207.971 215.773,201.971 217,194.5C 217.667,160.833 217.667,127.167 217,93.5C 215.375,86.9107 212.208,81.244 207.5,76.5 Z"/></g>
<g><path style="opacity:1" fill="#478ffe" d="M 70.5,110.5 C 83.1387,108.9 91.972,113.9 97,125.5C 98.6409,145.526 89.4743,154.359 69.5,152C 55.9856,145.129 52.1523,134.629 58,120.5C 61.4872,116.165 65.6538,112.832 70.5,110.5 Z"/></g>
<g><path style="opacity:1" fill="#488ffe" d="M 172.5,110.5 C 192.055,109.22 200.888,118.22 199,137.5C 194.818,148.847 186.651,154.013 174.5,153C 161.466,148.442 155.966,139.275 158,125.5C 161.021,118.647 165.855,113.647 172.5,110.5 Z"/></g>
<g><path style="opacity:1" fill="#a2c1f7" d="M 71.5,119.5 C 87.1344,118.974 91.9678,125.974 86,140.5C 77.9157,146.583 70.9157,145.583 65,137.5C 61.8203,129.532 63.987,123.532 71.5,119.5 Z"/></g>
<g><path style="opacity:1" fill="#a2c1f7" d="M 173.5,119.5 C 180.331,118.051 185.831,120.051 190,125.5C 193.35,136.466 189.35,142.799 178,144.5C 168.287,142.434 164.62,136.434 167,126.5C 168.694,123.642 170.861,121.309 173.5,119.5 Z"/></g>
<g><path style="opacity:1" fill="#fdfefe" d="M 19.5,123.5 C 18.4955,124.683 17.6622,126.016 17,127.5C 16.3333,138.5 16.3333,149.5 17,160.5C 17.2735,162.329 18.1068,163.829 19.5,165C 17.8659,165.494 16.1992,165.66 14.5,165.5C 12.2843,164.797 10.451,163.464 9,161.5C 8.33333,150.167 8.33333,138.833 9,127.5C 11.5907,123.952 15.0907,122.618 19.5,123.5 Z"/></g>
<g><path style="opacity:1" fill="#a5c3f7" d="M 19.5,123.5 C 20.4959,137.657 20.8293,151.99 20.5,166.5C 18.2646,166.795 16.2646,166.461 14.5,165.5C 16.1992,165.66 17.8659,165.494 19.5,165C 18.1068,163.829 17.2735,162.329 17,160.5C 16.3333,149.5 16.3333,138.5 17,127.5C 17.6622,126.016 18.4955,124.683 19.5,123.5 Z"/></g>
<g><path style="opacity:1" fill="#7eabfa" d="M 235.5,123.5 C 239.803,122.796 243.303,124.13 246,127.5C 246.667,138.833 246.667,150.167 246,161.5C 243.409,165.048 239.909,166.382 235.5,165.5C 236.504,164.317 237.338,162.984 238,161.5C 238.667,150.167 238.667,138.833 238,127.5C 237.338,126.016 236.504,124.683 235.5,123.5 Z"/></g>
<g><path style="opacity:1" fill="#a2c1f7" d="M 235.5,123.5 C 236.504,124.683 237.338,126.016 238,127.5C 238.667,138.833 238.667,150.167 238,161.5C 237.338,162.984 236.504,164.317 235.5,165.5C 234.167,151.5 234.167,137.5 235.5,123.5 Z"/></g>
<g><path style="opacity:1" fill="#488ffe" d="M 104.5,161.5 C 105.873,161.343 107.207,161.51 108.5,162C 117.372,170.864 127.705,172.864 139.5,168C 142.385,165.606 145.385,163.439 148.5,161.5C 150.948,162.114 152.615,163.614 153.5,166C 149.003,172.816 142.67,176.816 134.5,178C 122.14,180.655 111.64,177.489 103,168.5C 102.167,165.829 102.667,163.496 104.5,161.5 Z"/></g>
<g><path style="opacity:1" fill="#fdfefe" d="M 29.5,170.5 C 32.1667,170.5 34.8333,170.5 37.5,170.5C 37.3336,178.84 37.5003,187.173 38,195.5C 39.4033,201.475 42.2366,206.642 46.5,211C 45.9056,211.464 45.2389,211.631 44.5,211.5C 38.3359,209.51 33.8359,205.51 31,199.5C 29.6091,189.9 29.1091,180.233 29.5,170.5 Z"/></g>
<g><path style="opacity:1" fill="#fdfdfe" d="M 67.5,237.5 C 65.3805,239.4 63.0472,241.066 60.5,242.5C 59.8333,234.5 59.1667,226.5 58.5,218.5C 58.5,218.167 58.5,217.833 58.5,217.5C 60.2884,216.378 62.2884,216.211 64.5,217C 65.6667,217.5 66.5,218.333 67,219.5C 67.4995,225.491 67.6662,231.491 67.5,237.5 Z"/></g>
<g><path style="opacity:1" fill="#77acff" d="M 58.5,218.5 C 59.1667,226.5 59.8333,234.5 60.5,242.5C 60.44,243.043 60.1067,243.376 59.5,243.5C 58.5021,235.193 58.1688,226.86 58.5,218.5 Z"/></g>
</svg>
