<?xml version="1.0" encoding="UTF-8"?>
<!DOCTYPE svg PUBLIC "-//W3C//DTD SVG 1.1//EN" "http://www.w3.org/Graphics/SVG/1.1/DTD/svg11.dtd">
<svg xmlns="http://www.w3.org/2000/svg" version="1.1" width="256px" height="256px" style="shape-rendering:geometricPrecision; text-rendering:geometricPrecision; image-rendering:optimizeQuality; fill-rule:evenodd; clip-rule:evenodd" xmlns:xlink="http://www.w3.org/1999/xlink">
	<g>
		<path style="opacity:0.95" fill="#060502" d="M 120.5,-0.5 C 125.167,-0.5 129.833,-0.5 134.5,-0.5C 149.375,7.63242 152.875,19.2991 145,34.5C 141.523,37.9816 137.523,40.6482 133,42.5C 132.5,50.8267 132.334,59.16 132.5,67.5C 158.835,67.3334 185.169,67.5 211.5,68C 223.441,71.6076 230.941,79.4409 234,91.5C 234.5,99.1594 234.666,106.826 234.5,114.5C 244.239,113.2 251.239,116.867 255.5,125.5C 255.5,138.167 255.5,150.833 255.5,163.5C 251.215,172.144 244.215,175.811 234.5,174.5C 234.666,182.507 234.5,190.507 234,198.5C 230.5,210 223,217.5 211.5,221C 177.167,221.333 142.833,221.667 108.5,222C 91.3839,232.638 74.7173,243.804 58.5,255.5C 56.1667,255.5 53.8333,255.5 51.5,255.5C 50.5227,244.248 50.1894,232.914 50.5,221.5C 35.2904,220.796 25.4571,213.13 21,198.5C 20.5003,190.507 20.3336,182.507 20.5,174.5C 10.7852,175.811 3.78518,172.144 -0.5,163.5C -0.5,150.833 -0.5,138.167 -0.5,125.5C 3.78518,116.856 10.7852,113.189 20.5,114.5C 20.3336,106.826 20.5003,99.1594 21,91.5C 24.0586,79.4409 31.5586,71.6076 43.5,68C 69.8312,67.5 96.1646,67.3334 122.5,67.5C 122.666,59.16 122.5,50.8267 122,42.5C 106.507,35.5042 102.174,24.1708 109,8.5C 112.161,4.49052 115.994,1.49052 120.5,-0.5 Z"/>
	</g>
	<g>
		<path style="opacity:1" fill="#02a5ee" d="M 126.5,8.5 C 133.167,16.8333 133.167,25.1667 126.5,33.5C 115.528,30.5554 112.361,23.8887 117,13.5C 119.285,10.1078 122.452,8.44112 126.5,8.5 Z"/>
	</g>
	<g>
		<path style="opacity:1" fill="#0274b7" d="M 126.5,8.5 C 137.826,9.47834 141.993,15.4783 139,26.5C 136.264,31.2869 132.097,33.6202 126.5,33.5C 133.167,25.1667 133.167,16.8333 126.5,8.5 Z"/>
	</g>
	<g>
		<path style="opacity:1" fill="#fdde00" d="M 207.5,76.5 C 212.464,81.4223 215.631,87.4223 217,94.5C 217.667,127.833 217.667,161.167 217,194.5C 215.78,201.955 212.28,207.955 206.5,212.5C 172.832,212.333 139.165,212.5 105.5,213C 90.3471,222.663 75.3471,232.496 60.5,242.5C 59.8333,234.5 59.1667,226.5 58.5,218.5C 57.6072,215.539 55.6072,213.706 52.5,213C 41.49,212.998 33.99,207.832 30,197.5C 29.3333,162.167 29.3333,126.833 30,91.5C 32.8589,84.641 37.6923,79.8077 44.5,77C 98.8323,76.5 153.166,76.3333 207.5,76.5 Z"/>
	</g>
	<g>
		<path style="opacity:1" fill="#fcbf07" d="M 207.5,76.5 C 215.915,78.41 221.748,83.41 225,91.5C 225.667,126.833 225.667,162.167 225,197.5C 221.64,206.032 215.474,211.032 206.5,212.5C 212.28,207.955 215.78,201.955 217,194.5C 217.667,161.167 217.667,127.833 217,94.5C 215.631,87.4223 212.464,81.4223 207.5,76.5 Z"/>
	</g>
	<g>
		<path style="opacity:1" fill="#050503" d="M 70.5,110.5 C 90.6536,110.144 99.1536,119.811 96,139.5C 90.6787,150.734 81.8454,154.9 69.5,152C 55.9856,145.129 52.1523,134.629 58,120.5C 61.4647,116.193 65.6313,112.859 70.5,110.5 Z"/>
	</g>
	<g>
		<path style="opacity:1" fill="#050603" d="M 174.5,110.5 C 185.867,109.599 194.034,114.266 199,124.5C 201.167,145 192,154.167 171.5,152C 157.92,144.535 154.42,133.701 161,119.5C 164.528,114.834 169.028,111.834 174.5,110.5 Z"/>
	</g>
	<g>
		<path style="opacity:1" fill="#00b7ce" d="M 70.5,119.5 C 82.6285,117.479 88.7952,122.479 89,134.5C 86.2025,142.288 80.7025,145.454 72.5,144C 65.3065,140.78 62.4732,135.28 64,127.5C 65.6523,124.354 67.819,121.688 70.5,119.5 Z"/>
	</g>
	<g>
		<path style="opacity:1" fill="#00b7cf" d="M 173.5,119.5 C 185.921,117.925 191.755,123.258 191,135.5C 185.494,145.192 178.161,146.858 169,140.5C 163.425,131.942 164.925,124.942 173.5,119.5 Z"/>
	</g>
	<g>
		<path style="opacity:1" fill="#7e8d93" d="M 12.5,123.5 C 15.1667,123.5 17.8333,123.5 20.5,123.5C 20.5,137.5 20.5,151.5 20.5,165.5C 15.7775,166.447 11.9442,165.114 9,161.5C 8.33333,150.167 8.33333,138.833 9,127.5C 10.3756,126.295 11.5423,124.962 12.5,123.5 Z"/>
	</g>
	<g>
		<path style="opacity:1" fill="#7d8c92" d="M 235.5,123.5 C 236.504,124.683 237.338,126.016 238,127.5C 238.667,138.5 238.667,149.5 238,160.5C 237.634,162.452 236.801,164.118 235.5,165.5C 234.167,151.5 234.167,137.5 235.5,123.5 Z"/>
	</g>
	<g>
		<path style="opacity:1" fill="#535b5f" d="M 235.5,123.5 C 239.803,122.796 243.303,124.13 246,127.5C 246.667,138.833 246.667,150.167 246,161.5C 243.409,165.048 239.909,166.382 235.5,165.5C 236.801,164.118 237.634,162.452 238,160.5C 238.667,149.5 238.667,138.5 238,127.5C 237.338,126.016 236.504,124.683 235.5,123.5 Z"/>
	</g>
	<g>
		<path style="opacity:1" fill="#090700" d="M 104.5,161.5 C 109.785,164.915 115.451,167.748 121.5,170C 127.672,170.893 133.672,170.227 139.5,168C 142.385,165.606 145.385,163.439 148.5,161.5C 152.147,162.486 153.314,164.819 152,168.5C 142.544,177.325 131.378,180.492 118.5,178C 112.48,176.239 107.314,173.073 103,168.5C 102.167,165.829 102.667,163.496 104.5,161.5 Z"/>
	</g>
	<g>
		<path style="opacity:1" fill="#473e00" d="M 58.5,218.5 C 59.1667,226.5 59.8333,234.5 60.5,242.5C 60.44,243.043 60.1067,243.376 59.5,243.5C 58.5021,235.193 58.1688,226.86 58.5,218.5 Z"/>
	</g>
</svg>
